<?xml version="1.0" encoding="UTF-8" standalone="no"?>
<!-- Created with Inkscape (http://www.inkscape.org/) -->

<svg
   width="511.99997"
   height="511.99997"
   viewBox="0 0 135.46666 135.46666"
   version="1.1"
   id="svg1"
   inkscape:version="1.4.2 (ebf0e940d0, 2025-05-08)"
   sodipodi:docname="io.github.Sdk.svg"
   xmlns:inkscape="http://www.inkscape.org/namespaces/inkscape"
   xmlns:sodipodi="http://sodipodi.sourceforge.net/DTD/sodipodi-0.dtd"
   xmlns="http://www.w3.org/2000/svg"
   xmlns:svg="http://www.w3.org/2000/svg">
  <sodipodi:namedview
     id="namedview1"
     pagecolor="#505050"
     bordercolor="#eeeeee"
     borderopacity="1"
     inkscape:showpageshadow="0"
     inkscape:pageopacity="0"
     inkscape:pagecheckerboard="0"
     inkscape:deskcolor="#505050"
     inkscape:document-units="px"
     inkscape:zoom="1.0716961"
     inkscape:cx="396.56765"
     inkscape:cy="286.92836"
     inkscape:window-width="3440"
     inkscape:window-height="1412"
     inkscape:window-x="0"
     inkscape:window-y="0"
     inkscape:window-maximized="1"
     inkscape:current-layer="layer1" />
  <defs
     id="defs1" />
  <g
     inkscape:label="Layer 1"
     inkscape:groupmode="layer"
     id="layer1">
    <path
       id="path1"
       style="fill:none;stroke:#000000;stroke-width:2.64581"
       d="M 134.14376,67.73333 A 66.410431,66.410431 0 0 1 67.73333,134.14376 66.410431,66.410431 0 0 1 1.3228989,67.73333 66.410431,66.410431 0 0 1 67.73333,1.3228989 66.410431,66.410431 0 0 1 134.14376,67.73333 Z" />
    <path
       d="m 35.85098,87.603563 q -1.428751,0 -2.857502,-0.211667 -1.375834,-0.15875 -2.751668,-0.635 Q 28.918892,86.227729 27.754725,85.381061 26.590558,84.534394 25.796807,83.370227 25.003057,82.20606 24.579723,80.830225 24.15639,79.454391 24.15639,78.02564 v -0.370417 h 4.392085 v 0.211667 q 0,1.322918 0.582084,2.540002 0.635001,1.217084 1.693335,2.010834 1.11125,0.740834 2.381251,1.005418 1.322917,0.264583 2.645835,0.264583 1.322917,0 2.645835,-0.264583 1.375834,-0.317501 2.434168,-1.111251 1.058334,-0.846667 1.640418,-2.063751 0.635,-1.270001 0.635,-2.645835 0,-1.428751 -0.740834,-2.751669 -0.687917,-1.322917 -1.799168,-2.222501 -1.11125,-0.9525 -2.434168,-1.534584 -1.322917,-0.635001 -2.698751,-1.164168 -1.322918,-0.582083 -2.645835,-1.164167 -1.270001,-0.635 -2.487085,-1.428751 -1.217084,-0.79375 -2.275418,-1.799167 -1.058334,-1.005418 -1.852085,-2.222502 -0.740833,-1.217084 -1.164167,-2.645835 -0.423334,-1.428751 -0.423334,-2.857501 0,-1.428751 0.370417,-2.804585 0.370417,-1.375835 1.111251,-2.540002 0.740834,-1.217084 1.852085,-2.116668 1.11125,-0.952501 2.381251,-1.481667 1.322917,-0.582084 2.698752,-0.793751 1.42875,-0.211667 2.857501,-0.211667 1.375834,0 2.751669,0.211667 1.42875,0.15875 2.698751,0.687917 1.322918,0.529167 2.434168,1.428751 1.111251,0.846667 1.852085,2.010835 0.79375,1.164167 1.164167,2.540001 0.370417,1.322917 0.370417,2.698752 v 0.370417 h -4.392086 v -0.211667 q 0,-1.270001 -0.529167,-2.434168 -0.529167,-1.217084 -1.534584,-2.010835 -1.005417,-0.79375 -2.275418,-1.058334 -1.270001,-0.3175 -2.540002,-0.3175 -1.27,0 -2.592918,0.3175 -1.270001,0.3175 -2.275418,1.164167 -1.005417,0.793751 -1.534584,2.063752 -0.529167,1.217084 -0.529167,2.487085 0,1.481667 0.687917,2.804585 0.740834,1.322917 1.799168,2.275418 1.11125,0.899583 2.434168,1.534584 1.375834,0.582084 2.698751,1.164167 1.322918,0.529167 2.645835,1.164168 1.322918,0.582083 2.540002,1.375834 1.217084,0.79375 2.275418,1.799167 1.058334,1.005418 1.799168,2.222502 0.79375,1.217084 1.217084,2.645835 0.423333,1.375834 0.423333,2.804585 0,1.481667 -0.423333,2.910418 -0.370417,1.375834 -1.164168,2.592918 -0.79375,1.217084 -1.957918,2.116668 -1.164167,0.899584 -2.487084,1.428751 -1.322918,0.529167 -2.804585,0.740834 -1.428751,0.211667 -2.857502,0.211667 z M 65.325602,87.180229 H 56.435597 V 48.286456 h 8.890005 q 1.375834,0 2.698752,0.211667 1.322917,0.15875 2.540001,0.740833 1.270001,0.529167 2.328335,1.375835 1.11125,0.79375 1.957918,1.852084 0.899583,1.005417 1.587501,2.222501 0.687917,1.164168 1.164167,2.434168 0.529167,1.217085 0.846667,2.540002 0.3175,1.322917 0.47625,2.698752 0.211667,1.322917 0.264584,2.698751 0.105833,1.322918 0.105833,2.645835 0,1.375834 -0.105833,2.751668 -0.05292,1.322918 -0.264584,2.698752 -0.15875,1.322918 -0.47625,2.645835 -0.3175,1.322917 -0.846667,2.592918 -0.47625,1.217084 -1.164167,2.434168 -0.687918,1.164168 -1.587501,2.222502 -0.846668,1.005417 -1.957918,1.852084 -1.058334,0.793751 -2.328335,1.375834 -1.217084,0.529167 -2.540001,0.740834 -1.322918,0.15875 -2.698752,0.15875 z m -4.497919,-3.915835 h 4.497919 q 1.005417,0 2.010834,-0.158751 1.058334,-0.211666 1.905002,-0.740833 0.899583,-0.529167 1.640417,-1.217084 0.740834,-0.740834 1.270001,-1.587501 0.582084,-0.846668 1.005417,-1.799168 0.423334,-0.952501 0.740834,-1.905001 0.3175,-1.005418 0.47625,-2.010835 0.211667,-1.005417 0.317501,-2.010834 0.105833,-1.005418 0.15875,-2.010835 0.05292,-1.058334 0.05292,-2.116668 0,-1.005417 -0.05292,-2.010834 -0.05292,-1.058334 -0.15875,-2.063752 -0.105834,-1.005417 -0.317501,-2.010834 -0.15875,-1.005417 -0.47625,-1.957918 -0.3175,-1.005417 -0.740834,-1.957918 -0.423333,-0.9525 -1.005417,-1.799168 -0.529167,-0.846667 -1.270001,-1.534584 -0.740834,-0.740834 -1.640417,-1.270001 -0.846668,-0.529167 -1.905002,-0.740833 -1.005417,-0.211667 -2.010834,-0.211667 h -4.497919 z m 50.482547,3.915835 h -4.86833 l -9.789592,-17.62126 -3.122085,4.445002 V 87.180229 H 89.191054 V 48.286456 h 4.339169 V 67.177717 L 106.23023,48.286456 h 5.08 l -12.170837,17.62126 z"
       id="text1"
       style="font-size:52.9167px;font-family:'Adwaita Mono';-inkscape-font-specification:'Adwaita Mono, Normal';text-align:center;text-anchor:middle;fill:none;stroke:#000000;stroke-width:2.64583"
       aria-label="SDK" />
  </g>
</svg>
