<?xml version="1.0" encoding="UTF-8" standalone="no"?>
<!-- Created with Inkscape (http://www.inkscape.org/) -->

<svg
   width="511.99997"
   height="511.99997"
   viewBox="0 0 135.46666 135.46666"
   version="1.1"
   id="svg1"
   inkscape:version="1.4.2 (ebf0e940d0, 2025-05-08)"
   sodipodi:docname="io.github.Platform.svg"
   xmlns:inkscape="http://www.inkscape.org/namespaces/inkscape"
   xmlns:sodipodi="http://sodipodi.sourceforge.net/DTD/sodipodi-0.dtd"
   xmlns="http://www.w3.org/2000/svg"
   xmlns:svg="http://www.w3.org/2000/svg">
  <sodipodi:namedview
     id="namedview1"
     pagecolor="#505050"
     bordercolor="#eeeeee"
     borderopacity="1"
     inkscape:showpageshadow="0"
     inkscape:pageopacity="0"
     inkscape:pagecheckerboard="0"
     inkscape:deskcolor="#505050"
     inkscape:document-units="px"
     inkscape:zoom="1.0716961"
     inkscape:cx="396.56765"
     inkscape:cy="286.92836"
     inkscape:window-width="3440"
     inkscape:window-height="1412"
     inkscape:window-x="0"
     inkscape:window-y="0"
     inkscape:window-maximized="1"
     inkscape:current-layer="layer1" />
  <defs
     id="defs1" />
  <g
     inkscape:label="Layer 1"
     inkscape:groupmode="layer"
     id="layer1">
    <path
       id="path1"
       style="fill:none;stroke:#000000;stroke-width:2.64581"
       d="M 134.14376,67.73333 A 66.410431,66.410431 0 0 1 67.73333,134.14376 66.410431,66.410431 0 0 1 1.3228989,67.73333 66.410431,66.410431 0 0 1 67.73333,1.3228989 66.410431,66.410431 0 0 1 134.14376,67.73333 Z" />
    <path
       d="m 8.9957892,76.966217 v -18.669 h 5.3085998 q 0.7366,0 1.4478,0.1524 0.7112,0.127 1.3462,0.4572 0.6604,0.3302 1.143,0.889 0.508,0.5334 0.8128,1.1938 0.3302,0.635 0.4318,1.3716 0.127,0.7112 0.127,1.4478 0,0.7112 -0.127,1.4478 -0.1016,0.7112 -0.4318,1.3716 -0.3048,0.6604 -0.8128,1.1938 -0.4826,0.5334 -1.143,0.889 -0.635,0.3302 -1.3462,0.4572 -0.7112,0.127 -1.4478,0.127 h -3.2004 v 7.6708 z m 5.3085998,-9.525 q 0.4572,0 0.9144,-0.1016 0.4572,-0.1016 0.8382,-0.3302 0.4064,-0.254 0.6858,-0.6096 0.3048,-0.381 0.4572,-0.7874 0.1778,-0.4318 0.2286,-0.889 0.0762,-0.4572 0.0762,-0.9144 0,-0.4572 -0.0762,-0.9144 -0.0508,-0.4826 -0.2286,-0.889 -0.1524,-0.4318 -0.4572,-0.7874 -0.2794,-0.381 -0.6858,-0.6096 -0.381,-0.254 -0.8382,-0.3556 -0.4572,-0.1016 -0.9144,-0.1016 h -3.2004 v 7.2898 z m 20.116809,9.525 h -2.1336 q -0.5588,0 -1.143,-0.1016 -0.5588,-0.1016 -1.0922,-0.3556 -0.508,-0.254 -0.9398,-0.6604 -0.4064,-0.4064 -0.6604,-0.9144 -0.254,-0.5334 -0.3556,-1.0922 -0.0762,-0.5842 -0.0762,-1.1684 v -12.4968 h -4.063999 v -1.8796 h 6.146799 v 14.3764 q 0,0.4826 0.1016,0.9398 0.127,0.4572 0.4318,0.8128 0.3048,0.3556 0.7366,0.508 0.4572,0.1524 0.9144,0.1524 h 2.1336 z m 8.94081,0.2032 q -0.5588,0 -1.143,-0.0762 -0.5588,-0.0762 -1.0922,-0.254 -0.5334,-0.2032 -1.016,-0.5334 -0.4572,-0.3302 -0.7874,-0.7874 -0.3302,-0.4572 -0.4826,-1.016 -0.127,-0.5588 -0.127,-1.143 0,-0.6858 0.2286,-1.3462 0.2286,-0.6858 0.7112,-1.1938 0.4826,-0.508 1.1176,-0.8128 0.635,-0.3302 1.2954,-0.508 0.6858,-0.2032 1.3716,-0.254 0.7112,-0.0762 1.397,-0.0762 h 2.7686 v -1.016 q 0,-0.4064 -0.1016,-0.8128 -0.1016,-0.4064 -0.3302,-0.7366 -0.2286,-0.3302 -0.5842,-0.5588 -0.3302,-0.254 -0.7112,-0.381 -0.381,-0.1524 -0.7874,-0.2032 -0.4064,-0.0508 -0.8128,-0.0508 -0.3556,0 -0.7366,0.0254 -0.3556,0.0254 -0.7112,0.127 -0.3302,0.0762 -0.6858,0.2286 -0.3302,0.127 -0.6096,0.381 -0.254,0.2286 -0.4318,0.5588 -0.1524,0.3302 -0.1524,0.6858 v 0.0254 h -2.0828 v -0.0508 q 0,-0.6096 0.2286,-1.1938 0.2286,-0.6096 0.635,-1.0668 0.4064,-0.4572 0.9398,-0.762 0.5588,-0.3302 1.143,-0.508 0.6096,-0.1778 1.2192,-0.2286 0.6096,-0.0762 1.2446,-0.0762 0.6604,0 1.3208,0.1016 0.6858,0.0762 1.2954,0.3302 0.635,0.2286 1.1938,0.635 0.5588,0.4064 0.9144,0.9652 0.381,0.5588 0.5334,1.2446 0.1524,0.6604 0.1524,1.3208 v 8.8138 h -2.0828 v -2.3114 q -0.254,0.6096 -0.7112,1.1176 -0.4318,0.4826 -1.016,0.8128 -0.5588,0.3302 -1.2192,0.4572 -0.635,0.127 -1.2954,0.127 z m 0.8128,-1.8542 q 0.4572,0 0.889,-0.0508 0.4318,-0.0762 0.8382,-0.254 0.4064,-0.1778 0.7366,-0.4572 0.3556,-0.3048 0.5588,-0.6858 0.2286,-0.381 0.3048,-0.8128 0.1016,-0.4572 0.1016,-0.889 v -1.143 h -2.7686 q -0.4064,0 -0.8382,0.0254 -0.4318,0.0254 -0.8636,0.1016 -0.4064,0.0762 -0.8128,0.2286 -0.381,0.127 -0.7366,0.3556 -0.3556,0.2286 -0.5842,0.6096 -0.2032,0.381 -0.2032,0.8128 0,0.381 0.1524,0.7366 0.1524,0.3302 0.4064,0.6096 0.2794,0.254 0.6096,0.4064 0.3556,0.1524 0.7112,0.254 0.381,0.1016 0.7366,0.127 0.381,0.0254 0.762,0.0254 z m 20.751809,1.651 h -2.7432 q -0.5842,0 -1.1684,-0.1016 -0.5588,-0.1016 -1.0922,-0.3556 -0.508,-0.254 -0.9144,-0.6604 -0.4064,-0.4064 -0.6604,-0.9144 -0.254,-0.5334 -0.3556,-1.0922 -0.1016,-0.5842 -0.1016,-1.1684 v -7.0612 h -3.7338 v -1.8542 h 3.7338 v -5.461 h 2.1082 v 5.461 h 4.9276 v 1.8542 h -4.9276 v 7.0612 q 0,0.4826 0.1016,0.9398 0.127,0.4572 0.4064,0.8128 0.3048,0.3556 0.762,0.508 0.4572,0.1524 0.9144,0.1524 h 2.7432 z m 10.312409,0 h -2.1082 v -10.16 h -3.7338 v -1.8542 h 3.7338 v -2.3622 q 0,-0.5842 0.1016,-1.143 0.1016,-0.5842 0.3556,-1.0922 0.254,-0.5334 0.6604,-0.9398 0.4064,-0.4064 0.9144,-0.6604 0.5334,-0.254 1.0922,-0.3556 0.5842,-0.1016 1.1684,-0.1016 h 2.7432 v 1.8542 h -2.7432 q -0.4572,0 -0.9144,0.1778 -0.4572,0.1524 -0.762,0.508 -0.2794,0.3556 -0.4064,0.8128 -0.1016,0.4572 -0.1016,0.9398 v 2.3622 h 4.9276 v 1.8542 h -4.9276 z m 14.782806,0.2032 q -0.7366,0 -1.4986,-0.127 -0.7366,-0.127 -1.397,-0.4572 -0.6604,-0.3302 -1.2192,-0.8636 -0.5334,-0.5334 -0.889,-1.1938 -0.3302,-0.6604 -0.4572,-1.397 -0.127,-0.762 -0.127,-1.4986 v -2.54 q 0,-0.7366 0.127,-1.4732 0.127,-0.762 0.4572,-1.4224 0.3556,-0.6604 0.889,-1.1938 0.5588,-0.5334 1.2192,-0.8636 0.6604,-0.3302 1.397,-0.4572 0.762,-0.127 1.4986,-0.127 0.7366,0 1.4732,0.127 0.762,0.127 1.4224,0.4572 0.6604,0.3302 1.1938,0.8636 0.5588,0.5334 0.889,1.1938 0.3556,0.6604 0.4826,1.4224 0.127,0.7366 0.127,1.4732 v 2.54 q 0,0.7366 -0.127,1.4986 -0.127,0.7366 -0.4826,1.397 -0.3302,0.6604 -0.889,1.1938 -0.5334,0.5334 -1.1938,0.8636 -0.6604,0.3302 -1.4224,0.4572 -0.7366,0.127 -1.4732,0.127 z m 0,-1.8796 q 0.4826,0 0.9398,-0.0762 0.4826,-0.1016 0.9144,-0.3302 0.4318,-0.2286 0.7366,-0.5842 0.3302,-0.3556 0.5334,-0.7874 0.2032,-0.4572 0.2794,-0.9144 0.0762,-0.4826 0.0762,-0.9652 v -2.54 q 0,-0.4826 -0.0762,-0.9398 -0.0762,-0.4826 -0.2794,-0.9144 -0.2032,-0.4572 -0.5334,-0.8128 -0.3048,-0.3556 -0.7366,-0.5842 -0.4318,-0.2286 -0.9144,-0.3048 -0.4572,-0.1016 -0.9398,-0.1016 -0.4826,0 -0.9652,0.1016 -0.4572,0.0762 -0.889,0.3048 -0.4318,0.2286 -0.762,0.5842 -0.3048,0.3556 -0.508,0.8128 -0.2032,0.4318 -0.2794,0.9144 -0.0762,0.4572 -0.0762,0.9398 v 2.54 q 0,0.4826 0.0762,0.9652 0.0762,0.4572 0.2794,0.9144 0.2032,0.4318 0.508,0.7874 0.3302,0.3556 0.762,0.5842 0.4318,0.2286 0.889,0.3302 0.4826,0.0762 0.9652,0.0762 z m 11.607818,1.6764 v -13.208 h 2.1082 v 3.556 q 0.25399,-0.6604 0.66039,-1.2192 0.4318,-0.5588 0.9652,-0.9906 0.5334,-0.4318 1.1684,-0.7366 0.635,-0.3048 1.2954,-0.4826 0.6604,-0.2032 1.3462,-0.254 0.6858,-0.0762 1.397,-0.0762 v 2.0574 q -0.4572,0 -0.9144,0.0254 -0.4572,0.0254 -0.9144,0.0762 -0.4318,0.0508 -0.889,0.1524 -0.4318,0.1016 -0.889,0.254 -0.4318,0.127 -0.8382,0.3302 -0.4064,0.1778 -0.7874,0.4318 -0.3556,0.254 -0.6858,0.6096 -0.3048,0.3302 -0.5334,0.7366 -0.2032,0.381 -0.30479,0.8382 -0.0762,0.4318 -0.0762,0.889 v 7.0104 z m 12.90321,0 v -13.208 h 1.9812 v 1.2954 q 0.1524,-0.3302 0.381,-0.6096 0.2286,-0.3048 0.508,-0.508 0.3048,-0.2032 0.6604,-0.2794 0.381,-0.1016 0.7366,-0.1016 0.4318,0 0.8382,0.127 0.4318,0.127 0.762,0.4064 0.3302,0.2794 0.5588,0.6858 0.2286,0.381 0.3302,0.7874 0.127,-0.4064 0.3302,-0.7874 0.2286,-0.381 0.5334,-0.6604 0.3302,-0.3048 0.7366,-0.4318 0.4318,-0.127 0.8636,-0.127 0.4318,0 0.8382,0.127 0.4318,0.127 0.7366,0.381 0.3302,0.254 0.5588,0.635 0.2286,0.3556 0.3556,0.762 0.127,0.4064 0.1778,0.8382 0.0508,0.4064 0.0508,0.8382 v 9.8298 h -1.9812 v -9.8298 q 0,-0.3556 -0.0762,-0.6858 -0.0762,-0.3302 -0.2794,-0.5842 -0.1778,-0.2794 -0.508,-0.4064 -0.3048,-0.1524 -0.635,-0.1524 -0.3302,0 -0.6604,0.1524 -0.3048,0.127 -0.508,0.4064 -0.2032,0.254 -0.2794,0.5842 -0.0508,0.3302 -0.0508,0.6858 v 9.8298 h -1.9812 v -9.8298 q 0,-0.3556 -0.0762,-0.6858 -0.0508,-0.3302 -0.254,-0.5842 -0.2032,-0.2794 -0.5334,-0.4064 -0.3048,-0.1524 -0.635,-0.1524 -0.3302,0 -0.6604,0.1524 -0.3048,0.127 -0.508,0.4064 -0.1778,0.254 -0.254,0.5842 -0.0762,0.3302 -0.0762,0.6858 v 9.8298 z"
       id="text1"
       style="font-size:25.4px;font-family:'Adwaita Mono';-inkscape-font-specification:'Adwaita Mono, Normal';text-align:center;text-anchor:middle;fill:none;stroke:#000000;stroke-width:2.64583"
       aria-label="Platform" />
  </g>
</svg>
