<?xml version="1.0" encoding="UTF-8" standalone="no"?>
<!-- Created with Inkscape (http://www.inkscape.org/) -->

<svg
   width="511.99997"
   height="511.99997"
   viewBox="0 0 135.46666 135.46666"
   version="1.1"
   id="svg1"
   inkscape:version="1.4.2 (ebf0e940d0, 2025-05-08)"
   sodipodi:docname="io.github.App.svg"
   xmlns:inkscape="http://www.inkscape.org/namespaces/inkscape"
   xmlns:sodipodi="http://sodipodi.sourceforge.net/DTD/sodipodi-0.dtd"
   xmlns="http://www.w3.org/2000/svg"
   xmlns:svg="http://www.w3.org/2000/svg">
  <sodipodi:namedview
     id="namedview1"
     pagecolor="#505050"
     bordercolor="#eeeeee"
     borderopacity="1"
     inkscape:showpageshadow="0"
     inkscape:pageopacity="0"
     inkscape:pagecheckerboard="0"
     inkscape:deskcolor="#505050"
     inkscape:document-units="px"
     inkscape:zoom="1.0716961"
     inkscape:cx="396.56765"
     inkscape:cy="285.99526"
     inkscape:window-width="3440"
     inkscape:window-height="1412"
     inkscape:window-x="0"
     inkscape:window-y="0"
     inkscape:window-maximized="1"
     inkscape:current-layer="layer1" />
  <defs
     id="defs1" />
  <g
     inkscape:label="Layer 1"
     inkscape:groupmode="layer"
     id="layer1">
    <path
       id="path1"
       style="fill:none;stroke:#000000;stroke-width:2.64581"
       d="M 134.14376,67.73333 A 66.410431,66.410431 0 0 1 67.73333,134.14376 66.410431,66.410431 0 0 1 1.3228989,67.73333 66.410431,66.410431 0 0 1 67.73333,1.3228989 66.410431,66.410431 0 0 1 134.14376,67.73333 Z" />
    <path
       style="font-size:52.9167px;font-family:'Adwaita Mono';-inkscape-font-specification:'Adwaita Mono, Normal';text-align:center;text-anchor:middle;fill:none;stroke:#000000;stroke-width:2.64583"
       d="M 23.600747,87.180183 33.760753,48.28641 h 5.080003 L 49.000762,87.180183 H 44.449926 L 42.015758,77.284761 H 30.585751 l -2.434168,9.895422 z M 41.063258,73.421842 38.047006,61.251001 q -0.423334,-1.799168 -0.899584,-3.598335 -0.423334,-1.852085 -0.846667,-3.704169 -0.423334,1.852084 -0.899584,3.704169 -0.423334,1.799167 -0.846667,3.598335 L 31.538252,73.421842 Z M 57.996622,87.180183 V 48.28641 h 11.05959 q 1.534584,0 3.016252,0.3175 1.481667,0.264584 2.804585,0.952501 1.375834,0.687917 2.381251,1.852084 1.058334,1.111251 1.693335,2.487085 0.687917,1.322918 0.899584,2.857502 0.264583,1.481667 0.264583,3.016252 0,1.481667 -0.264583,3.016251 -0.211667,1.481668 -0.899584,2.857502 -0.635001,1.375834 -1.693335,2.487085 -1.005417,1.111251 -2.381251,1.852084 -1.322918,0.687917 -2.804585,0.952501 -1.481668,0.264583 -3.016252,0.264583 h -6.667504 v 15.980843 z m 11.05959,-19.843762 q 0.952501,0 1.905001,-0.211666 0.952501,-0.211667 1.746251,-0.687917 0.846667,-0.529167 1.428751,-1.270001 0.635001,-0.793751 0.952501,-1.640418 0.370417,-0.899584 0.47625,-1.852084 0.15875,-0.952501 0.15875,-1.905001 0,-0.952501 -0.15875,-1.905002 -0.105833,-1.005417 -0.47625,-1.852084 -0.3175,-0.899584 -0.952501,-1.640418 -0.582084,-0.79375 -1.428751,-1.27 -0.79375,-0.529167 -1.746251,-0.740834 -0.9525,-0.211667 -1.905001,-0.211667 h -6.667504 v 15.187092 z m 20.69045,19.843762 V 48.28641 h 11.059588 q 1.53459,0 3.01625,0.3175 1.48167,0.264584 2.80459,0.952501 1.37583,0.687917 2.38125,1.852084 1.05833,1.111251 1.69333,2.487085 0.68792,1.322918 0.89959,2.857502 0.26458,1.481667 0.26458,3.016252 0,1.481667 -0.26458,3.016251 -0.21167,1.481668 -0.89959,2.857502 -0.635,1.375834 -1.69333,2.487085 -1.00542,1.111251 -2.38125,1.852084 -1.32292,0.687917 -2.80459,0.952501 -1.48166,0.264583 -3.01625,0.264583 H 94.138748 V 87.180183 Z M 100.80625,67.336421 q 0.9525,0 1.905,-0.211666 0.9525,-0.211667 1.74625,-0.687917 0.84667,-0.529167 1.42876,-1.270001 0.635,-0.793751 0.9525,-1.640418 0.37041,-0.899584 0.47625,-1.852084 0.15875,-0.952501 0.15875,-1.905001 0,-0.952501 -0.15875,-1.905002 -0.10584,-1.005417 -0.47625,-1.852084 -0.3175,-0.899584 -0.9525,-1.640418 -0.58209,-0.79375 -1.42876,-1.27 -0.79375,-0.529167 -1.74625,-0.740834 -0.9525,-0.211667 -1.905,-0.211667 h -6.667502 v 15.187092 z"
       id="text1"
       aria-label="APP" />
  </g>
</svg>
